<mxfile host="app.diagrams.net" modified="2024-07-14T19:14:15.917Z" agent="Mozilla/5.0 (Windows NT 10.0; Win64; x64) AppleWebKit/537.36 (KHTML, like Gecko) Chrome/126.0.0.0 Safari/537.36 Edg/126.0.0.0" etag="8NXx-cZgmhpXM7kCqvHt" version="24.6.5" type="device">
  <diagram name="Page-1" id="mjW9xgP9Q29aeDSC8SMi">
    <mxGraphModel dx="2135" dy="778" grid="1" gridSize="10" guides="1" tooltips="1" connect="1" arrows="1" fold="1" page="1" pageScale="1" pageWidth="850" pageHeight="1100" math="0" shadow="0">
      <root>
        <mxCell id="0" />
        <mxCell id="1" parent="0" />
        <mxCell id="Rpe3zJYCLmSKRhE5oiEl-1" value="User" style="rounded=0;whiteSpace=wrap;html=1;" parent="1" vertex="1">
          <mxGeometry x="40" y="40" width="120" height="60" as="geometry" />
        </mxCell>
        <mxCell id="Rpe3zJYCLmSKRhE5oiEl-3" value="Recipient" style="rounded=0;whiteSpace=wrap;html=1;" parent="1" vertex="1">
          <mxGeometry x="600" y="40" width="120" height="60" as="geometry" />
        </mxCell>
        <mxCell id="Rpe3zJYCLmSKRhE5oiEl-4" value="SecretSentry Application" style="rounded=1;whiteSpace=wrap;html=1;" parent="1" vertex="1">
          <mxGeometry x="300" y="40" width="160" height="80" as="geometry" />
        </mxCell>
        <mxCell id="Rpe3zJYCLmSKRhE5oiEl-5" value="" style="endArrow=none;html=1;rounded=0;" parent="1" edge="1">
          <mxGeometry width="50" height="50" relative="1" as="geometry">
            <mxPoint x="100" y="360" as="sourcePoint" />
            <mxPoint x="100" y="110" as="targetPoint" />
            <Array as="points">
              <mxPoint x="100" y="230" />
            </Array>
          </mxGeometry>
        </mxCell>
        <mxCell id="Rpe3zJYCLmSKRhE5oiEl-7" value="" style="endArrow=none;html=1;rounded=0;entryX=0.5;entryY=1;entryDx=0;entryDy=0;" parent="1" target="Rpe3zJYCLmSKRhE5oiEl-3" edge="1">
          <mxGeometry width="50" height="50" relative="1" as="geometry">
            <mxPoint x="660" y="360" as="sourcePoint" />
            <mxPoint x="520" y="290" as="targetPoint" />
          </mxGeometry>
        </mxCell>
        <mxCell id="Rpe3zJYCLmSKRhE5oiEl-8" value="" style="endArrow=none;html=1;rounded=0;" parent="1" edge="1">
          <mxGeometry width="50" height="50" relative="1" as="geometry">
            <mxPoint x="100" y="360" as="sourcePoint" />
            <mxPoint x="660" y="360" as="targetPoint" />
          </mxGeometry>
        </mxCell>
        <mxCell id="Rpe3zJYCLmSKRhE5oiEl-10" value="" style="endArrow=none;html=1;rounded=0;entryX=0.5;entryY=1;entryDx=0;entryDy=0;" parent="1" target="Rpe3zJYCLmSKRhE5oiEl-4" edge="1">
          <mxGeometry width="50" height="50" relative="1" as="geometry">
            <mxPoint x="380" y="360" as="sourcePoint" />
            <mxPoint x="420" y="270" as="targetPoint" />
          </mxGeometry>
        </mxCell>
        <mxCell id="Rpe3zJYCLmSKRhE5oiEl-12" value="" style="endArrow=classic;html=1;rounded=0;" parent="1" edge="1">
          <mxGeometry width="50" height="50" relative="1" as="geometry">
            <mxPoint x="100" y="200" as="sourcePoint" />
            <mxPoint x="340" y="200" as="targetPoint" />
          </mxGeometry>
        </mxCell>
        <mxCell id="Rpe3zJYCLmSKRhE5oiEl-13" value="P1" style="text;html=1;align=center;verticalAlign=middle;resizable=0;points=[];autosize=1;strokeColor=none;fillColor=none;" parent="1" vertex="1">
          <mxGeometry x="340" y="180" width="40" height="30" as="geometry" />
        </mxCell>
        <mxCell id="Rpe3zJYCLmSKRhE5oiEl-14" value="Secret Submission" style="text;html=1;align=center;verticalAlign=middle;resizable=0;points=[];autosize=1;strokeColor=none;fillColor=none;" parent="1" vertex="1">
          <mxGeometry x="120" y="170" width="120" height="30" as="geometry" />
        </mxCell>
        <mxCell id="Rpe3zJYCLmSKRhE5oiEl-15" value="" style="endArrow=classic;html=1;rounded=0;" parent="1" edge="1">
          <mxGeometry width="50" height="50" relative="1" as="geometry">
            <mxPoint x="660" y="240" as="sourcePoint" />
            <mxPoint x="380" y="240" as="targetPoint" />
          </mxGeometry>
        </mxCell>
        <mxCell id="Rpe3zJYCLmSKRhE5oiEl-16" value="Generated Link" style="text;html=1;align=center;verticalAlign=middle;resizable=0;points=[];autosize=1;strokeColor=none;fillColor=none;" parent="1" vertex="1">
          <mxGeometry x="460" y="210" width="110" height="30" as="geometry" />
        </mxCell>
        <mxCell id="Rpe3zJYCLmSKRhE5oiEl-17" value="" style="endArrow=classic;html=1;rounded=0;" parent="1" edge="1">
          <mxGeometry width="50" height="50" relative="1" as="geometry">
            <mxPoint x="380" y="300" as="sourcePoint" />
            <mxPoint x="660" y="300" as="targetPoint" />
          </mxGeometry>
        </mxCell>
        <mxCell id="Rpe3zJYCLmSKRhE5oiEl-18" value="Access Request via Link" style="text;html=1;align=center;verticalAlign=middle;resizable=0;points=[];autosize=1;strokeColor=none;fillColor=none;" parent="1" vertex="1">
          <mxGeometry x="445" y="268" width="150" height="30" as="geometry" />
        </mxCell>
        <mxCell id="Rpe3zJYCLmSKRhE5oiEl-20" value="" style="shape=link;html=1;rounded=0;exitX=1.046;exitY=0.639;exitDx=0;exitDy=0;exitPerimeter=0;entryX=0;entryY=0.5;entryDx=0;entryDy=0;" parent="1" source="Rpe3zJYCLmSKRhE5oiEl-1" target="Rpe3zJYCLmSKRhE5oiEl-4" edge="1">
          <mxGeometry width="100" relative="1" as="geometry">
            <mxPoint x="280" y="290" as="sourcePoint" />
            <mxPoint x="380" y="290" as="targetPoint" />
            <Array as="points" />
          </mxGeometry>
        </mxCell>
        <mxCell id="Rpe3zJYCLmSKRhE5oiEl-21" value="" style="shape=link;html=1;rounded=0;exitX=1.046;exitY=0.639;exitDx=0;exitDy=0;exitPerimeter=0;entryX=0;entryY=0.5;entryDx=0;entryDy=0;" parent="1" edge="1">
          <mxGeometry width="100" relative="1" as="geometry">
            <mxPoint x="166" y="78" as="sourcePoint" />
            <mxPoint x="300" y="80" as="targetPoint" />
            <Array as="points" />
          </mxGeometry>
        </mxCell>
        <mxCell id="Rpe3zJYCLmSKRhE5oiEl-22" value="" style="shape=link;html=1;rounded=0;exitX=1.046;exitY=0.639;exitDx=0;exitDy=0;exitPerimeter=0;entryX=0;entryY=0.5;entryDx=0;entryDy=0;" parent="1" edge="1">
          <mxGeometry width="100" relative="1" as="geometry">
            <mxPoint x="466" y="79" as="sourcePoint" />
            <mxPoint x="600" y="81" as="targetPoint" />
            <Array as="points" />
          </mxGeometry>
        </mxCell>
        <mxCell id="Rpe3zJYCLmSKRhE5oiEl-23" value="" style="endArrow=classic;html=1;rounded=0;" parent="1" edge="1">
          <mxGeometry width="50" height="50" relative="1" as="geometry">
            <mxPoint x="820" y="330" as="sourcePoint" />
            <mxPoint x="660" y="330" as="targetPoint" />
          </mxGeometry>
        </mxCell>
        <mxCell id="Rpe3zJYCLmSKRhE5oiEl-24" value="Decrypted Secret" style="text;html=1;align=center;verticalAlign=middle;resizable=0;points=[];autosize=1;strokeColor=none;fillColor=none;" parent="1" vertex="1">
          <mxGeometry x="670" y="298" width="120" height="30" as="geometry" />
        </mxCell>
        <mxCell id="Rpe3zJYCLmSKRhE5oiEl-25" value="User Interface Handling&lt;br&gt;P1" style="rounded=0;whiteSpace=wrap;html=1;" parent="1" vertex="1">
          <mxGeometry x="40" y="440" width="120" height="60" as="geometry" />
        </mxCell>
        <mxCell id="Rpe3zJYCLmSKRhE5oiEl-26" value="Link Generation &amp;amp; Management&lt;br&gt;P2" style="rounded=0;whiteSpace=wrap;html=1;" parent="1" vertex="1">
          <mxGeometry x="325" y="440" width="120" height="60" as="geometry" />
        </mxCell>
        <mxCell id="Rpe3zJYCLmSKRhE5oiEl-27" value="Encryption/Decryption&lt;br&gt;P3" style="rounded=0;whiteSpace=wrap;html=1;" parent="1" vertex="1">
          <mxGeometry x="610" y="440" width="120" height="60" as="geometry" />
        </mxCell>
        <mxCell id="Rpe3zJYCLmSKRhE5oiEl-28" value="" style="endArrow=classic;html=1;rounded=0;" parent="1" edge="1">
          <mxGeometry width="50" height="50" relative="1" as="geometry">
            <mxPoint x="340" y="360" as="sourcePoint" />
            <mxPoint x="340" y="430" as="targetPoint" />
          </mxGeometry>
        </mxCell>
        <mxCell id="Rpe3zJYCLmSKRhE5oiEl-29" value="" style="endArrow=classic;html=1;rounded=0;" parent="1" edge="1">
          <mxGeometry width="50" height="50" relative="1" as="geometry">
            <mxPoint x="415" y="360" as="sourcePoint" />
            <mxPoint x="415" y="430" as="targetPoint" />
          </mxGeometry>
        </mxCell>
        <mxCell id="Rpe3zJYCLmSKRhE5oiEl-32" value="" style="endArrow=none;html=1;rounded=0;entryX=0.487;entryY=1.12;entryDx=0;entryDy=0;entryPerimeter=0;" parent="1" edge="1">
          <mxGeometry width="50" height="50" relative="1" as="geometry">
            <mxPoint x="100" y="720" as="sourcePoint" />
            <mxPoint x="98.44000000000005" y="500.00000000000006" as="targetPoint" />
          </mxGeometry>
        </mxCell>
        <mxCell id="Rpe3zJYCLmSKRhE5oiEl-34" value="" style="endArrow=none;html=1;rounded=0;" parent="1" edge="1">
          <mxGeometry width="50" height="50" relative="1" as="geometry">
            <mxPoint x="100" y="720" as="sourcePoint" />
            <mxPoint x="670" y="720" as="targetPoint" />
          </mxGeometry>
        </mxCell>
        <mxCell id="Rpe3zJYCLmSKRhE5oiEl-35" value="" style="endArrow=none;html=1;rounded=0;entryX=0.5;entryY=1;entryDx=0;entryDy=0;" parent="1" target="Rpe3zJYCLmSKRhE5oiEl-27" edge="1">
          <mxGeometry width="50" height="50" relative="1" as="geometry">
            <mxPoint x="670" y="720" as="sourcePoint" />
            <mxPoint x="580" y="530" as="targetPoint" />
          </mxGeometry>
        </mxCell>
        <mxCell id="Rpe3zJYCLmSKRhE5oiEl-36" value="" style="endArrow=none;html=1;rounded=0;entryX=0.5;entryY=1;entryDx=0;entryDy=0;" parent="1" target="Rpe3zJYCLmSKRhE5oiEl-26" edge="1">
          <mxGeometry width="50" height="50" relative="1" as="geometry">
            <mxPoint x="385" y="720" as="sourcePoint" />
            <mxPoint x="410" y="530" as="targetPoint" />
          </mxGeometry>
        </mxCell>
        <mxCell id="Rpe3zJYCLmSKRhE5oiEl-37" value="" style="endArrow=classic;html=1;rounded=0;" parent="1" edge="1">
          <mxGeometry width="50" height="50" relative="1" as="geometry">
            <mxPoint x="100" y="580" as="sourcePoint" />
            <mxPoint x="310" y="580" as="targetPoint" />
          </mxGeometry>
        </mxCell>
        <mxCell id="Rpe3zJYCLmSKRhE5oiEl-39" value="Secret Submission" style="text;html=1;align=center;verticalAlign=middle;whiteSpace=wrap;rounded=0;" parent="1" vertex="1">
          <mxGeometry x="130" y="550" width="170" height="30" as="geometry" />
        </mxCell>
        <mxCell id="Rpe3zJYCLmSKRhE5oiEl-42" value="" style="endArrow=classic;html=1;rounded=0;" parent="1" edge="1">
          <mxGeometry width="50" height="50" relative="1" as="geometry">
            <mxPoint x="680" y="580" as="sourcePoint" />
            <mxPoint x="840" y="580" as="targetPoint" />
          </mxGeometry>
        </mxCell>
        <mxCell id="Rpe3zJYCLmSKRhE5oiEl-43" value="Encrypt &amp;amp; Decrypt Secret" style="text;html=1;align=center;verticalAlign=middle;resizable=0;points=[];autosize=1;strokeColor=none;fillColor=none;" parent="1" vertex="1">
          <mxGeometry x="680" y="550" width="160" height="30" as="geometry" />
        </mxCell>
        <mxCell id="Rpe3zJYCLmSKRhE5oiEl-46" value="Monitoring &amp;amp; Logging&lt;br&gt;P4" style="rounded=0;whiteSpace=wrap;html=1;" parent="1" vertex="1">
          <mxGeometry x="325" y="840" width="120" height="60" as="geometry" />
        </mxCell>
        <mxCell id="Rpe3zJYCLmSKRhE5oiEl-47" value="Logs&lt;br&gt;DS3" style="rounded=0;whiteSpace=wrap;html=1;" parent="1" vertex="1">
          <mxGeometry x="325" y="1020" width="120" height="60" as="geometry" />
        </mxCell>
        <mxCell id="Rpe3zJYCLmSKRhE5oiEl-48" value="" style="endArrow=classic;html=1;rounded=0;" parent="1" edge="1">
          <mxGeometry width="50" height="50" relative="1" as="geometry">
            <mxPoint x="384.5" y="730" as="sourcePoint" />
            <mxPoint x="384.5" y="830" as="targetPoint" />
          </mxGeometry>
        </mxCell>
        <mxCell id="Rpe3zJYCLmSKRhE5oiEl-49" value="" style="endArrow=classic;html=1;rounded=0;" parent="1" edge="1">
          <mxGeometry width="50" height="50" relative="1" as="geometry">
            <mxPoint x="390" y="910" as="sourcePoint" />
            <mxPoint x="390" y="1010" as="targetPoint" />
          </mxGeometry>
        </mxCell>
        <mxCell id="Rpe3zJYCLmSKRhE5oiEl-50" value="Activity Logging" style="text;html=1;align=center;verticalAlign=middle;resizable=0;points=[];autosize=1;strokeColor=none;fillColor=none;" parent="1" vertex="1">
          <mxGeometry x="380" y="770" width="110" height="30" as="geometry" />
        </mxCell>
        <mxCell id="Rpe3zJYCLmSKRhE5oiEl-51" value="Activity Logging" style="text;html=1;align=center;verticalAlign=middle;resizable=0;points=[];autosize=1;strokeColor=none;fillColor=none;" parent="1" vertex="1">
          <mxGeometry x="420" y="378" width="110" height="30" as="geometry" />
        </mxCell>
        <mxCell id="Rpe3zJYCLmSKRhE5oiEl-53" value="" style="endArrow=classic;startArrow=classic;html=1;rounded=0;" parent="1" target="Rpe3zJYCLmSKRhE5oiEl-52" edge="1">
          <mxGeometry width="50" height="50" relative="1" as="geometry">
            <mxPoint x="390" y="580" as="sourcePoint" />
            <mxPoint x="660" y="580" as="targetPoint" />
          </mxGeometry>
        </mxCell>
        <mxCell id="Rpe3zJYCLmSKRhE5oiEl-52" value="Encrypted Secrets Storage&lt;br&gt;DS1" style="html=1;whiteSpace=wrap;" parent="1" vertex="1">
          <mxGeometry x="325" y="560" width="110" height="50" as="geometry" />
        </mxCell>
        <mxCell id="Rpe3zJYCLmSKRhE5oiEl-57" value="" style="endArrow=classic;html=1;rounded=0;" parent="1" edge="1">
          <mxGeometry width="50" height="50" relative="1" as="geometry">
            <mxPoint x="50" y="500" as="sourcePoint" />
            <mxPoint x="50" y="760" as="targetPoint" />
          </mxGeometry>
        </mxCell>
        <mxCell id="Rpe3zJYCLmSKRhE5oiEl-58" value="Link Database&lt;br&gt;DS2" style="html=1;whiteSpace=wrap;" parent="1" vertex="1">
          <mxGeometry x="-10" y="770" width="110" height="50" as="geometry" />
        </mxCell>
        <mxCell id="Rpe3zJYCLmSKRhE5oiEl-59" value="Generate Link" style="text;html=1;align=center;verticalAlign=middle;resizable=0;points=[];autosize=1;strokeColor=none;fillColor=none;" parent="1" vertex="1">
          <mxGeometry x="-50" y="648" width="100" height="30" as="geometry" />
        </mxCell>
      </root>
    </mxGraphModel>
  </diagram>
</mxfile>
